<mxfile host="65bd71144e" modified="2021-01-17T02:48:55.965Z" agent="5.0 (Macintosh; Intel Mac OS X 10_11_6) AppleWebKit/537.36 (KHTML, like Gecko) Code/1.50.1 Chrome/83.0.4103.122 Electron/9.2.1 Safari/537.36" etag="ODNkjzbyzr4CRo_USq1U" version="13.10.0" type="embed">
    <diagram id="ei5ZGNZvCjpj4wYwU9Eb" name="Page-1">
        <mxGraphModel dx="790" dy="446" grid="1" gridSize="10" guides="1" tooltips="1" connect="1" arrows="1" fold="1" page="1" pageScale="1" pageWidth="850" pageHeight="1100" math="0" shadow="0">
            <root>
                <mxCell id="0"/>
                <mxCell id="1" parent="0"/>
                <mxCell id="2" value="correlationId" style="rounded=0;whiteSpace=wrap;html=1;fontSize=14;fillColor=#fa6800;strokeColor=#C73500;fontColor=#ffffff;fontStyle=1" parent="1" vertex="1">
                    <mxGeometry x="580" y="450" width="160" height="60" as="geometry"/>
                </mxCell>
                <mxCell id="4" value="errorCode" style="rounded=0;whiteSpace=wrap;html=1;fontSize=14;fillColor=#e51400;strokeColor=#B20000;fontStyle=1;fontColor=#ffffff;" parent="1" vertex="1">
                    <mxGeometry x="740" y="450" width="120" height="60" as="geometry"/>
                </mxCell>
                <mxCell id="5" value="Broker" style="rounded=0;whiteSpace=wrap;html=1;fontSize=14;fillColor=#b1ddf0;strokeColor=#10739e;fontStyle=1" parent="1" vertex="1">
                    <mxGeometry x="860" y="450" width="120" height="60" as="geometry"/>
                </mxCell>
                <mxCell id="8" value="int" style="text;html=1;strokeColor=none;fillColor=none;align=center;verticalAlign=middle;whiteSpace=wrap;rounded=0;fontSize=14;fontStyle=1;fontColor=#006666;" parent="1" vertex="1">
                    <mxGeometry x="640" y="428" width="40" height="20" as="geometry"/>
                </mxCell>
                <mxCell id="9" value="short" style="text;html=1;strokeColor=none;fillColor=none;align=center;verticalAlign=middle;whiteSpace=wrap;rounded=0;fontSize=14;fontStyle=1;fontColor=#006666;" parent="1" vertex="1">
                    <mxGeometry x="780" y="428" width="40" height="20" as="geometry"/>
                </mxCell>
                <mxCell id="19" value="brokerId" style="rounded=0;whiteSpace=wrap;html=1;fillColor=#b0e3e6;strokeColor=#0e8088;fontStyle=1" parent="1" vertex="1">
                    <mxGeometry x="760" y="600" width="100" height="50" as="geometry"/>
                </mxCell>
                <mxCell id="20" value="host" style="rounded=0;whiteSpace=wrap;html=1;fillColor=#f0a30a;strokeColor=#BD7000;fontStyle=1;fontColor=#ffffff;" parent="1" vertex="1">
                    <mxGeometry x="860" y="600" width="100" height="50" as="geometry"/>
                </mxCell>
                <mxCell id="23" value="port" style="rounded=0;whiteSpace=wrap;html=1;fillColor=#e3c800;strokeColor=#B09500;fontStyle=1;fontColor=#ffffff;" parent="1" vertex="1">
                    <mxGeometry x="960" y="600" width="100" height="50" as="geometry"/>
                </mxCell>
                <mxCell id="24" value="int" style="text;html=1;strokeColor=none;fillColor=none;align=center;verticalAlign=middle;whiteSpace=wrap;rounded=0;fontSize=14;fontStyle=1;fontColor=#006666;" parent="1" vertex="1">
                    <mxGeometry x="990" y="580" width="40" height="20" as="geometry"/>
                </mxCell>
                <mxCell id="26" value="string" style="text;html=1;strokeColor=none;fillColor=none;align=center;verticalAlign=middle;whiteSpace=wrap;rounded=0;fontSize=14;fontStyle=1;fontColor=#006666;" parent="1" vertex="1">
                    <mxGeometry x="890" y="580" width="40" height="20" as="geometry"/>
                </mxCell>
                <mxCell id="54" value="" style="endArrow=none;dashed=1;html=1;fontSize=20;exitX=0;exitY=0;exitDx=0;exitDy=0;entryX=1;entryY=1;entryDx=0;entryDy=0;" parent="1" source="19" target="4" edge="1">
                    <mxGeometry width="50" height="50" relative="1" as="geometry">
                        <mxPoint x="1130" y="590" as="sourcePoint"/>
                        <mxPoint x="1180" y="540" as="targetPoint"/>
                    </mxGeometry>
                </mxCell>
                <mxCell id="55" value="" style="endArrow=none;dashed=1;html=1;fontSize=20;exitX=1;exitY=1;exitDx=0;exitDy=0;entryX=1;entryY=0;entryDx=0;entryDy=0;" parent="1" source="5" target="23" edge="1">
                    <mxGeometry width="50" height="50" relative="1" as="geometry">
                        <mxPoint x="1020" y="510" as="sourcePoint"/>
                        <mxPoint x="1180" y="540" as="targetPoint"/>
                    </mxGeometry>
                </mxCell>
                <mxCell id="60" value="ConsumerMetadataResponse" style="text;html=1;strokeColor=none;fillColor=none;align=center;verticalAlign=middle;whiteSpace=wrap;rounded=0;fontSize=20;fontStyle=1" parent="1" vertex="1">
                    <mxGeometry x="670" y="360" width="280" height="20" as="geometry"/>
                </mxCell>
                <mxCell id="61" value="int" style="text;html=1;strokeColor=none;fillColor=none;align=center;verticalAlign=middle;whiteSpace=wrap;rounded=0;fontSize=14;fontStyle=1;fontColor=#006666;" vertex="1" parent="1">
                    <mxGeometry x="790" y="580" width="40" height="20" as="geometry"/>
                </mxCell>
            </root>
        </mxGraphModel>
    </diagram>
</mxfile>